<?xml version="1.0" standalone="no"?>
<!DOCTYPE svg PUBLIC "-//W3C//DTD SVG 20010904//EN"
 "http://www.w3.org/TR/2001/REC-SVG-20010904/DTD/svg10.dtd">
<svg version="1.0" xmlns="http://www.w3.org/2000/svg"
 width="48.000000pt" height="48.000000pt" viewBox="0 0 48.000000 48.000000"
 preserveAspectRatio="xMidYMid meet">

<g transform="translate(0.000000,48.000000) scale(0.100000,-0.100000)"
fill="#000000" stroke="none">
<path d="M125 436 c-56 -25 -79 -61 -85 -132 -3 -35 -2 -64 2 -64 5 0 8 4 8 9
0 5 14 34 32 65 29 50 36 56 64 56 32 0 32 0 18 -29 -19 -39 -31 -127 -16
-117 7 4 12 15 12 25 0 31 56 107 89 120 28 12 33 11 56 -10 43 -41 26 -83
-49 -122 -29 -14 -29 -15 -7 -22 13 -4 28 -2 34 4 19 19 28 12 16 -11 -17 -33
-27 -37 -65 -26 -41 11 -54 5 -54 -27 0 -22 -2 -23 -36 -12 l-37 11 6 84 c3
46 1 80 -3 75 -8 -8 -34 -87 -44 -135 -4 -16 -11 -28 -16 -28 -36 0 25 -85 77
-106 42 -18 184 -18 226 0 61 26 81 59 87 142 3 41 4 74 3 74 0 0 -10 -16 -21
-35 -41 -68 -112 -54 -98 19 7 38 66 106 91 106 40 0 -13 69 -68 89 -40 15
-186 13 -222 -3z"/>
<path d="M264 307 c5 -22 -19 -34 -38 -18 -11 9 -17 3 -30 -29 -9 -22 -16 -43
-16 -46 0 -10 89 57 105 78 20 30 19 37 -6 35 -14 -1 -19 -7 -15 -20z"/>
<path d="M393 318 c-25 -33 -26 -40 -3 -28 18 10 25 8 41 -6 18 -16 19 -16 13
-1 -3 9 -11 17 -16 17 -6 0 -8 7 -4 15 7 18 -17 20 -31 3z"/>
<path d="M366 248 c-16 -23 -13 -38 9 -38 13 0 25 21 25 46 0 21 -17 17 -34
-8z"/>
</g>
</svg>
