<?xml version="1.0" standalone="no"?>
<!DOCTYPE svg PUBLIC "-//W3C//DTD SVG 20010904//EN"
 "http://www.w3.org/TR/2001/REC-SVG-20010904/DTD/svg10.dtd">
<svg version="1.0" xmlns="http://www.w3.org/2000/svg"
 width="2000.000000pt" height="2000.000000pt" viewBox="0 0 2000.000000 2000.000000"
 preserveAspectRatio="xMidYMid meet">

<g transform="translate(0.000000,2000.000000) scale(0.100000,-0.100000)"
fill="#000000" stroke="none">
<path d="M2227 18670 c-240 -41 -468 -180 -623 -381 -97 -127 -171 -302 -194
-464 -8 -59 -10 -1233 -8 -4394 l3 -4314 299 614 c1160 2380 1777 3534 2410
4509 297 458 654 931 931 1234 l71 77 91 -30 c258 -84 662 -123 1053 -101 464
25 1039 130 1458 265 72 23 132 41 132 40 0 -2 -43 -40 -95 -85 -696 -595
-1240 -1564 -1540 -2745 -187 -735 -286 -1491 -301 -2315 -13 -674 42 -1361
152 -1870 38 -175 86 -352 94 -343 4 4 19 71 34 148 165 848 442 1840 727
2593 565 1495 1272 2679 2084 3487 559 557 1127 904 1715 1049 347 86 727 104
1013 50 374 -71 657 -274 793 -570 49 -106 84 -259 84 -370 l0 -91 83 -17
c186 -39 422 -135 562 -229 493 -330 662 -925 460 -1622 -190 -655 -676 -1305
-1337 -1787 -255 -187 -457 -300 -1658 -933 -956 -504 -1273 -681 -1590 -891
-124 -82 -350 -255 -350 -268 0 -2 57 12 128 30 441 112 747 116 1297 14 221
-41 374 -60 530 -66 519 -21 937 121 1336 454 193 162 466 466 668 745 35 48
65 86 67 84 2 -1 -8 -39 -22 -82 -13 -44 -70 -251 -125 -460 -181 -683 -272
-951 -426 -1259 -221 -441 -525 -737 -881 -856 -254 -85 -590 -81 -957 10
-137 35 -446 135 -680 222 -492 183 -802 280 -955 298 -400 49 -905 -162
-1399 -584 l-104 -89 7 -221 c19 -614 109 -1049 293 -1420 24 -49 42 -91 40
-93 -3 -2 -32 13 -67 33 -200 117 -646 295 -970 387 -576 164 -1123 253 -1599
259 l-193 3 5 50 c4 28 15 129 26 225 46 400 46 426 46 2610 0 2167 0 2195 45
2825 68 946 214 1667 421 2077 17 33 28 62 26 65 -17 16 -177 -109 -266 -207
-348 -383 -728 -1113 -1125 -2156 -246 -648 -487 -1387 -690 -2114 -376 -1351
-596 -2443 -613 -3048 l-6 -213 -25 6 c-15 4 -76 10 -136 15 -227 19 -576 -24
-963 -117 l-113 -27 0 -2042 c0 -2217 -2 -2116 55 -2283 92 -272 318 -506 584
-608 l86 -32 7870 -1 7870 0 83 29 c322 112 576 419 637 770 13 73 15 782 15
5492 l0 5409 -59 -48 c-141 -113 -351 -216 -537 -263 -436 -110 -779 29 -801
324 l-6 74 61 5 c194 18 400 230 463 476 33 130 18 238 -43 308 -51 58 -99 77
-209 82 -116 5 -213 -16 -352 -78 -505 -224 -1105 -857 -1598 -1687 -109 -183
-303 -562 -394 -768 -81 -182 -127 -290 -122 -285 2 3 39 48 82 100 108 131
348 368 480 474 586 467 1254 676 1750 545 350 -91 638 -362 749 -704 44 -136
58 -223 63 -395 13 -396 -87 -792 -321 -1275 -143 -294 -265 -496 -461 -760
-250 -338 -606 -702 -914 -935 -274 -208 -630 -399 -881 -474 -108 -33 -272
-66 -380 -77 -168 -17 -547 -7 -685 20 -231 44 -404 110 -560 213 -327 216
-517 555 -587 1053 -21 149 -16 556 11 760 74 577 269 1187 577 1805 239 479
448 801 754 1160 1003 1177 2074 1925 2975 2080 174 30 420 37 562 16 133 -20
241 -46 323 -79 l60 -25 0 1538 c0 1667 2 1614 -55 1779 -31 92 -91 205 -149
280 -67 87 -193 200 -284 255 -90 54 -242 109 -342 125 -79 13 -15468 13
-15543 1z"/>
<path d="M11241 13974 c-242 -129 -419 -311 -550 -564 -164 -317 -158 -591 16
-750 78 -72 143 -93 263 -87 106 5 173 27 283 94 75 45 208 171 289 272 l60
74 -7 -39 c-14 -75 -75 -250 -118 -332 -310 -604 -1077 -943 -1662 -735 -263
94 -424 257 -480 487 -22 90 -22 274 0 381 22 108 67 240 120 355 l45 95 -41
-45 c-77 -85 -249 -304 -353 -449 -861 -1204 -1554 -2968 -1770 -4508 -14
-100 -26 -188 -25 -195 0 -7 13 21 29 62 167 423 495 838 990 1251 310 259
676 511 1190 819 484 291 746 468 1115 755 737 574 1261 1151 1524 1675 134
269 208 529 218 771 9 205 -24 377 -93 496 l-26 43 -27 -20 c-219 -170 -397
-237 -652 -247 -103 -4 -161 -2 -240 12 -98 16 -259 58 -324 85 l-30 12 70 20
c143 40 262 115 291 184 14 33 9 74 -10 74 -6 0 -49 -21 -95 -46z"/>
<path d="M16155 11400 c-573 -89 -1117 -740 -1453 -1740 -48 -143 -56 -175
-55 -240 1 -166 94 -428 195 -546 119 -140 263 -204 458 -204 276 0 543 124
785 364 251 250 435 563 563 957 91 280 117 437 116 709 0 200 -2 222 -27 312
-51 190 -148 320 -274 368 -67 26 -210 35 -308 20z"/>
</g>
</svg>
